<!-- <?xml version="1.0" encoding="utf-8"?><!-- Uploaded to: SVG Repo, www.svgrepo.com, Generator: SVG Repo Mixer Tools --> -->
<!-- <svg width="24px" height="24px" viewBox="0 0 24 24" fill="#292E42" xmlns="http://www.w3.org/2000/svg"> -->
<!-- <path d="M12 3V7M12 17V21M3 12H7M17 12H21M12 12H12.01M19 12C19 15.866 15.866 19 12 19C8.13401 19 5 15.866 5 12C5 8.13401 8.13401 5 12 5C15.866 5 19 8.13401 19 12Z" stroke="#FF9E64" stroke-width="2" stroke-linecap="round" stroke-linejoin="round"/> -->
<!-- </svg> -->
<?xml version="1.0" encoding="utf-8"?><!-- Uploaded to: SVG Repo, www.svgrepo.com, Generator: SVG Repo Mixer Tools -->
<svg width="24px" height="24px" viewBox="0 0 24 24" fill="#2e2e2e" xmlns="http://www.w3.org/2000/svg">
<path d="M12 3V7M12 17V21M3 12H7M17 12H21M12 12H12.01M19 12C19 15.866 15.866 19 12 19C8.13401 19 5 15.866 5 12C5 8.13401 8.13401 5 12 5C15.866 5 19 8.13401 19 12Z" stroke="#e2e2e2" stroke-width="2" stroke-linecap="round" stroke-linejoin="round"/>
</svg>
