<svg width="300" height="300" viewBox="0 0 300 300" fill="none" xmlns="http://www.w3.org/2000/svg">
<rect width="300" height="300" fill="#E2E2E2"/>
<path d="M76.4285 194.368L86.7965 195.648C87.1378 196.928 87.1378 198.507 86.7965 200.384C81.4205 200.128 76.8978 200 73.2285 200C71.1805 200 66.5725 200.085 59.4045 200.256C58.8925 198.72 58.8925 197.184 59.4045 195.648L67.8525 194.112C69.2178 192.064 70.9245 188.267 72.9725 182.72L105.997 94.4H110.477L147.597 194.368L157.965 195.648C158.306 196.928 158.306 198.507 157.965 200.384C152.589 200.128 146.573 200 139.917 200C134.967 200 128.909 200.085 121.741 200.256C121.229 198.72 121.229 197.184 121.741 195.648L132.365 194.112L121.101 162.496H87.8205L76.4285 194.368ZM104.845 113.728H104.717C103.693 117.739 102.029 122.987 99.7245 129.472L90.1245 156.096H118.797L109.453 129.472C107.661 124.267 106.125 119.019 104.845 113.728ZM176.427 191.168C181.376 194.581 188.331 196.288 197.291 196.288C203.349 196.288 207.872 194.539 210.859 191.04C213.931 187.541 215.467 183.36 215.467 178.496C215.467 175.936 215.253 173.803 214.827 172.096C214.4 170.304 213.461 168.299 212.011 166.08C210.645 163.861 208.427 161.643 205.355 159.424C202.283 157.205 198.272 154.859 193.323 152.384C187.52 149.483 182.827 146.752 179.243 144.192C175.659 141.632 172.971 138.987 171.179 136.256C169.387 133.525 168.192 130.923 167.595 128.448C166.997 125.973 166.699 122.901 166.699 119.232C166.699 111.723 169.685 105.92 175.659 101.824C181.717 97.6427 188.843 95.552 197.035 95.552C207.189 95.552 217.003 98.112 226.475 103.232V127.808C223.573 128.32 221.141 128.32 219.179 127.808L215.083 105.664C209.621 102.677 203.52 101.184 196.779 101.184C192.256 101.184 188.416 102.549 185.259 105.28C182.187 107.925 180.651 111.68 180.651 116.544C180.651 119.275 180.821 121.408 181.163 122.944C181.504 124.48 182.357 126.315 183.723 128.448C185.088 130.496 187.349 132.587 190.507 134.72C193.664 136.768 197.888 139.072 203.179 141.632C221.44 150.507 230.571 161.088 230.571 173.376C230.571 182.08 227.243 189.12 220.587 194.496C213.931 199.872 205.227 202.56 194.475 202.56C183.808 202.56 173.995 200.043 165.035 195.008V170.432C167.936 169.92 170.368 169.92 172.331 170.432L176.427 191.168Z" fill="#2E2E2E"/>
<rect width="246" height="27" transform="translate(27 137)" fill="#E2E2E2"/>
<path d="M70.4989 155.296L71.7949 155.456C71.8375 155.616 71.8375 155.813 71.7949 156.048C71.1229 156.016 70.5575 156 70.0989 156C69.8429 156 69.2669 156.011 68.3709 156.032C68.3069 155.84 68.3069 155.648 68.3709 155.456L69.4269 155.264C69.5975 155.008 69.8109 154.533 70.0669 153.84L74.1949 142.8H74.7549L79.3949 155.296L80.6909 155.456C80.7335 155.616 80.7335 155.813 80.6909 156.048C80.0189 156.016 79.2669 156 78.4349 156C77.8162 156 77.0589 156.011 76.1629 156.032C76.0989 155.84 76.0989 155.648 76.1629 155.456L77.4909 155.264L76.0829 151.312H71.9229L70.4989 155.296ZM74.0509 145.216H74.0349C73.9069 145.717 73.6989 146.373 73.4109 147.184L72.2109 150.512H75.7949L74.6269 147.184C74.4029 146.533 74.2109 145.877 74.0509 145.216ZM91.5426 151.712V145.92C91.5426 145.077 91.5213 144.453 91.4786 144.048L89.9906 143.856C89.9266 143.664 89.9266 143.472 89.9906 143.28C90.6626 143.312 91.3133 143.328 91.9426 143.328C92.636 143.328 93.2813 143.307 93.8786 143.264C93.9213 143.499 93.9213 143.696 93.8786 143.856L92.4226 144.016V156H91.5746L84.5186 146.448C84.188 146.011 83.7986 145.44 83.3506 144.736C83.404 145.227 83.4306 145.819 83.4306 146.512V153.392C83.4306 154.235 83.452 154.859 83.4946 155.264L84.9826 155.456C85.0466 155.648 85.0466 155.84 84.9826 156.032C84.0653 156.011 83.4146 156 83.0306 156C82.4013 156 81.756 156.016 81.0946 156.048C81.052 155.813 81.052 155.616 81.0946 155.456L82.5506 155.296V145.872C82.5506 145.029 82.5293 144.405 82.4866 144L81.1586 143.808C81.0946 143.627 81.0946 143.445 81.1586 143.264H84.2946L90.7106 152C90.796 152.117 90.8866 152.256 90.9826 152.416C91.0893 152.576 91.2013 152.768 91.3186 152.992C91.4466 153.216 91.548 153.387 91.6226 153.504C91.5693 152.864 91.5426 152.267 91.5426 151.712ZM104.773 151.936V143.968L103.477 143.808V143.216C104.063 143.259 104.602 143.28 105.093 143.28C105.498 143.28 106.042 143.264 106.725 143.232V143.808L105.717 144C105.674 144.405 105.653 145.029 105.653 145.872V151.84C105.61 153.355 105.253 154.48 104.581 155.216C103.909 155.952 102.73 156.32 101.045 156.32C97.8661 156.32 96.2768 154.875 96.2768 151.984V143.968L94.9808 143.808C94.9381 143.648 94.9381 143.451 94.9808 143.216C95.5674 143.259 96.2981 143.28 97.1728 143.28C97.9514 143.28 98.6874 143.264 99.3808 143.232C99.4448 143.424 99.4448 143.616 99.3808 143.808L98.0528 144C98.0101 144.405 97.9888 145.029 97.9888 145.872V151.984C97.9888 153.179 98.2661 154.032 98.8208 154.544C99.3754 155.045 100.293 155.296 101.573 155.296C102.778 155.296 103.61 155.035 104.069 154.512C104.538 153.979 104.773 153.12 104.773 151.936ZM120.428 153.392V144.192L115.596 156.48H115.18L110.524 144.592V153.392C110.524 154.235 110.545 154.859 110.588 155.264L112.076 155.456C112.14 155.648 112.14 155.84 112.076 156.032C111.159 156.011 110.508 156 110.124 156C109.484 156 108.839 156.016 108.188 156.048C108.145 155.813 108.145 155.616 108.188 155.456L109.644 155.296V145.872C109.644 145.029 109.623 144.405 109.58 144L108.252 143.808C108.188 143.627 108.188 143.445 108.252 143.264H111.772L115.788 153.792L119.9 143.264C120.145 143.275 120.519 143.28 121.02 143.28C121.127 143.28 121.964 143.264 123.532 143.232C123.596 143.424 123.596 143.616 123.532 143.808L122.204 144C122.161 144.405 122.14 145.029 122.14 145.872V155.296L123.436 155.456C123.479 155.616 123.479 155.813 123.436 156.048C122.764 156.016 122.033 156 121.244 156C120.668 156 119.932 156.011 119.036 156.032C118.972 155.765 118.972 155.573 119.036 155.456L120.364 155.264C120.407 154.859 120.428 154.235 120.428 153.392ZM126.425 153.408V143.968L125.129 143.792C125.065 143.6 125.065 143.408 125.129 143.216L127.321 143.264H133.785L133.801 146.976C133.566 147.019 133.369 147.019 133.209 146.976L132.457 144.08H128.137V148.88L130.697 148.832L131.065 147.264C131.225 147.221 131.422 147.221 131.657 147.264C131.614 147.861 131.593 148.549 131.593 149.328C131.593 150.043 131.609 150.736 131.641 151.408C131.449 151.472 131.257 151.472 131.065 151.408L130.713 149.744L128.137 149.696V155.184H132.937L133.689 152.288C133.849 152.245 134.046 152.245 134.281 152.288L134.265 156H127.321L125.033 156.048C124.969 155.856 124.969 155.664 125.033 155.472L126.361 155.296C126.404 154.752 126.425 154.123 126.425 153.408ZM139.092 146L141.204 149.616L144.548 143.968L143.252 143.808C143.21 143.648 143.21 143.451 143.252 143.216C143.839 143.259 144.426 143.28 145.012 143.28C145.524 143.28 146.122 143.264 146.804 143.232C146.868 143.424 146.868 143.616 146.804 143.808L145.812 144C145.354 144.523 145.002 144.997 144.756 145.424L141.62 150.544V155.296L142.916 155.456C142.959 155.616 142.959 155.813 142.916 156.048C142.244 156.016 141.514 156 140.724 156C140.148 156 139.412 156.011 138.516 156.032C138.452 155.84 138.452 155.648 138.516 155.456L139.844 155.264C139.887 154.859 139.908 154.235 139.908 153.392V150.496L136.084 143.968L134.948 143.808C134.906 143.648 134.906 143.451 134.948 143.216C135.535 143.259 136.335 143.28 137.348 143.28C138.276 143.28 139.087 143.264 139.78 143.232C139.844 143.424 139.844 143.616 139.78 143.808L138.212 144.112C138.543 144.933 138.836 145.563 139.092 146ZM147.233 155.296L148.529 155.456C148.572 155.616 148.572 155.813 148.529 156.048C147.857 156.016 147.292 156 146.833 156C146.577 156 146.001 156.011 145.105 156.032C145.041 155.84 145.041 155.648 145.105 155.456L146.161 155.264C146.332 155.008 146.545 154.533 146.801 153.84L150.929 142.8H151.489L156.129 155.296L157.425 155.456C157.468 155.616 157.468 155.813 157.425 156.048C156.753 156.016 156.001 156 155.169 156C154.551 156 153.793 156.011 152.897 156.032C152.833 155.84 152.833 155.648 152.897 155.456L154.225 155.264L152.817 151.312H148.657L147.233 155.296ZM150.785 145.216H150.769C150.641 145.717 150.433 146.373 150.145 147.184L148.945 150.512H152.529L151.361 147.184C151.137 146.533 150.945 145.877 150.785 145.216ZM163.671 154.896C164.289 155.323 165.159 155.536 166.279 155.536C167.036 155.536 167.601 155.317 167.975 154.88C168.359 154.443 168.551 153.92 168.551 153.312C168.551 152.992 168.524 152.725 168.471 152.512C168.417 152.288 168.3 152.037 168.119 151.76C167.948 151.483 167.671 151.205 167.287 150.928C166.903 150.651 166.401 150.357 165.783 150.048C165.057 149.685 164.471 149.344 164.023 149.024C163.575 148.704 163.239 148.373 163.015 148.032C162.791 147.691 162.641 147.365 162.567 147.056C162.492 146.747 162.455 146.363 162.455 145.904C162.455 144.965 162.828 144.24 163.575 143.728C164.332 143.205 165.223 142.944 166.247 142.944C167.516 142.944 168.743 143.264 169.927 143.904V146.976C169.564 147.04 169.26 147.04 169.015 146.976L168.503 144.208C167.82 143.835 167.057 143.648 166.215 143.648C165.649 143.648 165.169 143.819 164.775 144.16C164.391 144.491 164.199 144.96 164.199 145.568C164.199 145.909 164.22 146.176 164.263 146.368C164.305 146.56 164.412 146.789 164.583 147.056C164.753 147.312 165.036 147.573 165.431 147.84C165.825 148.096 166.353 148.384 167.015 148.704C169.297 149.813 170.439 151.136 170.439 152.672C170.439 153.76 170.023 154.64 169.191 155.312C168.359 155.984 167.271 156.32 165.927 156.32C164.593 156.32 163.367 156.005 162.247 155.376V152.304C162.609 152.24 162.913 152.24 163.159 152.304L163.671 154.896ZM173.644 153.408V143.968L172.348 143.792C172.284 143.6 172.284 143.408 172.348 143.216L174.54 143.264H181.004L181.02 146.976C180.785 147.019 180.588 147.019 180.428 146.976L179.676 144.08H175.356V148.88L177.916 148.832L178.284 147.264C178.444 147.221 178.641 147.221 178.876 147.264C178.833 147.861 178.812 148.549 178.812 149.328C178.812 150.043 178.828 150.736 178.86 151.408C178.668 151.472 178.476 151.472 178.284 151.408L177.932 149.744L175.356 149.696V155.184H180.156L180.908 152.288C181.068 152.245 181.265 152.245 181.5 152.288L181.484 156H174.54L172.252 156.048C172.188 155.856 172.188 155.664 172.252 155.472L173.58 155.296C173.622 154.752 173.644 154.123 173.644 153.408ZM192.519 149.008V143.968L191.223 143.808C191.18 143.648 191.18 143.451 191.223 143.216C191.81 143.259 192.54 143.28 193.415 143.28C194.204 143.28 194.94 143.264 195.623 143.232C195.687 143.424 195.687 143.616 195.623 143.808L194.295 144C194.252 144.405 194.231 145.029 194.231 145.872V155.296L195.527 155.456C195.57 155.616 195.57 155.813 195.527 156.048C194.855 156.016 194.124 156 193.335 156C192.759 156 192.023 156.011 191.127 156.032C191.063 155.84 191.063 155.648 191.127 155.456L192.455 155.264C192.498 154.859 192.519 154.235 192.519 153.392V149.808H186.215V155.296L187.511 155.456C187.554 155.616 187.554 155.813 187.511 156.048C186.839 156.016 186.108 156 185.319 156C184.743 156 184.007 156.011 183.111 156.032C183.047 155.84 183.047 155.648 183.111 155.456L184.439 155.264C184.482 154.859 184.503 154.235 184.503 153.392V143.968L183.207 143.808C183.164 143.648 183.164 143.451 183.207 143.216C183.794 143.259 184.524 143.28 185.399 143.28C186.178 143.28 186.914 143.264 187.607 143.232C187.671 143.424 187.671 143.616 187.607 143.808L186.279 144C186.236 144.405 186.215 145.029 186.215 145.872V149.008H192.519ZM207.243 156.288L206.827 154.976C205.589 155.872 204.395 156.32 203.243 156.32C202.197 156.32 201.285 156.133 200.507 155.76C199.728 155.376 199.083 154.875 198.571 154.256C198.059 153.627 197.675 152.917 197.419 152.128C197.173 151.328 197.051 150.512 197.051 149.68C197.051 148.837 197.195 148.016 197.483 147.216C197.781 146.405 198.213 145.685 198.779 145.056C199.355 144.427 200.053 143.92 200.875 143.536C201.696 143.141 202.635 142.944 203.691 142.944C205.163 142.944 206.517 143.264 207.755 143.904V146.976C207.563 147.008 207.392 147.024 207.243 147.024C207.083 147.024 206.949 147.008 206.843 146.976L206.331 144.304C205.648 143.877 204.704 143.664 203.499 143.664C202.827 143.664 202.219 143.819 201.675 144.128C201.131 144.427 200.661 144.837 200.267 145.36C199.872 145.872 199.568 146.48 199.355 147.184C199.141 147.877 199.035 148.619 199.035 149.408C199.035 150.251 199.131 151.029 199.323 151.744C199.525 152.459 199.808 153.077 200.171 153.6C200.533 154.123 200.971 154.533 201.483 154.832C202.005 155.12 202.587 155.264 203.227 155.264C204.261 155.264 205.28 154.981 206.283 154.416V151.008L204.987 150.848C204.965 150.795 204.955 150.709 204.955 150.592C204.955 150.539 204.955 150.485 204.955 150.432C204.955 150.379 204.965 150.32 204.987 150.256C205.285 150.277 205.611 150.293 205.963 150.304C206.325 150.315 206.731 150.32 207.179 150.32C207.957 150.32 208.693 150.304 209.387 150.272C209.419 150.368 209.435 150.464 209.435 150.56C209.435 150.656 209.419 150.752 209.387 150.848L208.059 151.04C208.037 151.243 208.021 151.499 208.011 151.808C208 152.117 207.995 152.485 207.995 152.912V154.528L207.835 156.288C207.792 156.309 207.749 156.32 207.707 156.32C207.664 156.32 207.616 156.32 207.563 156.32C207.509 156.32 207.456 156.32 207.403 156.32C207.349 156.32 207.296 156.309 207.243 156.288ZM211.702 155.296L212.998 155.456C213.041 155.616 213.041 155.813 212.998 156.048C212.326 156.016 211.761 156 211.302 156C211.046 156 210.47 156.011 209.574 156.032C209.51 155.84 209.51 155.648 209.574 155.456L210.63 155.264C210.801 155.008 211.014 154.533 211.27 153.84L215.398 142.8H215.958L220.598 155.296L221.894 155.456C221.937 155.616 221.937 155.813 221.894 156.048C221.222 156.016 220.47 156 219.638 156C219.019 156 218.262 156.011 217.366 156.032C217.302 155.84 217.302 155.648 217.366 155.456L218.694 155.264L217.286 151.312H213.126L211.702 155.296ZM215.254 145.216H215.238C215.11 145.717 214.902 146.373 214.614 147.184L213.414 150.512H216.998L215.83 147.184C215.606 146.533 215.414 145.877 215.254 145.216ZM224.618 156L222.33 156.048C222.266 155.856 222.266 155.664 222.33 155.472L223.658 155.296C223.7 154.752 223.722 154.123 223.722 153.408V143.968L222.426 143.808C222.383 143.648 222.383 143.451 222.426 143.216C223.012 143.259 223.743 143.28 224.618 143.28C225.396 143.28 226.132 143.264 226.826 143.232C226.89 143.424 226.89 143.616 226.826 143.808L225.498 144C225.455 144.405 225.434 145.029 225.434 145.872V155.184H230.714L231.466 152.288C231.626 152.245 231.823 152.245 232.058 152.288L232.042 156H224.618Z" fill="#2E2E2E"/>
</svg>
